<svg xmlns="http://www.w3.org/2000/svg" xmlns:xlink="http://www.w3.org/1999/xlink" width="302" height="26" viewBox="0 0 302 26">
  <defs>
    <clipPath id="clip-path">
      <rect id="Rectangle_1469" data-name="Rectangle 1469" width="26" height="302" transform="translate(939.016 2334.424)" fill="#3d0f66" stroke="#3e1066" stroke-width="1"/>
    </clipPath>
  </defs>
  <g id="Mask_Group_1" data-name="Mask Group 1" transform="translate(2636.424 -939.016) rotate(90)" clip-path="url(#clip-path)">
    <path id="Path_106" data-name="Path 106" d="M.439,0a4.929,4.929,0,0,1,0,8.3,4.928,4.928,0,0,0,0,8.3,4.929,4.929,0,0,1,0,8.3,4.928,4.928,0,0,0,0,8.3,4.929,4.929,0,0,1,0,8.3,4.929,4.929,0,0,0,0,8.3,4.928,4.928,0,0,1,0,8.3,4.93,4.93,0,0,0,0,8.3,4.928,4.928,0,0,1,0,8.3,4.929,4.929,0,0,0,0,8.3,4.929,4.929,0,0,1,0,8.3,4.928,4.928,0,0,0,0,8.3,4.929,4.929,0,0,1,0,8.3,4.929,4.929,0,0,0,0,8.3,4.928,4.928,0,0,1,0,8.3,4.929,4.929,0,0,0,0,8.3,4.928,4.928,0,0,1,0,8.3,4.929,4.929,0,0,0,0,8.3,4.929,4.929,0,0,1,0,8.3,4.928,4.928,0,0,0,0,8.3,4.929,4.929,0,0,1,0,8.3,4.928,4.928,0,0,0,0,8.3,4.929,4.929,0,0,1,0,8.3,4.93,4.93,0,0,0,0,8.3,4.928,4.928,0,0,1,0,8.3,4.929,4.929,0,0,0,0,8.3,4.929,4.929,0,0,1,0,8.3,4.928,4.928,0,0,0,0,8.3,4.929,4.929,0,0,1,0,8.3,4.928,4.928,0,0,0,0,8.3,4.929,4.929,0,0,1,0,8.3,4.929,4.929,0,0,0,0,8.3,4.928,4.928,0,0,1,0,8.3,4.929,4.929,0,0,0,0,8.3,4.928,4.928,0,0,1,0,8.3,4.929,4.929,0,0,0,0,8.3,4.929,4.929,0,0,1,0,8.3,4.928,4.928,0,0,0,0,8.3,4.929,4.929,0,0,1,0,8.3,4.929,4.929,0,0,0,0,8.3,4.929,4.929,0,0,1,0,8.3,4.929,4.929,0,0,0,0,8.3,4.928,4.928,0,0,1,0,8.3,4.929,4.929,0,0,0,0,8.3,4.928,4.928,0,0,1,0,8.3,4.929,4.929,0,0,0,0,8.3,4.929,4.929,0,0,1,0,8.3,4.928,4.928,0,0,0,0,8.3,4.929,4.929,0,0,1,0,8.3,4.929,4.929,0,0,0,0,8.3,4.928,4.928,0,0,1,0,8.3,4.929,4.929,0,0,0,0,8.3,4.928,4.928,0,0,1,0,8.3,4.929,4.929,0,0,0,0,8.3" transform="translate(951.576 2266.292)" fill="none" stroke="#3d0f66" stroke-width="1"/>
  </g>
</svg>
