<?xml version="1.0" encoding="UTF-8"?>
<svg width="165px" height="54px" viewBox="0 0 165 54" version="1.1" xmlns="http://www.w3.org/2000/svg" xmlns:xlink="http://www.w3.org/1999/xlink">
    <title>Group</title>
    <g id="Page-1" stroke="none" stroke-width="1" fill="none" fill-rule="evenodd">
        <g id="felloh_logo_colour" transform="translate(-51.000000, -46.000000)" fill="#3D0F66">
            <g id="Group" transform="translate(51.898000, 46.872000)">
                <polyline id="Fill-1" points="161.771 45.631 161.347 45.207 155.41 45.207 154.986 45.631 154.986 51.144 155.41 51.568 161.347 51.568 161.771 51.144 161.771 45.631"></polyline>
                <polyline id="Fill-2" points="163.009 6.031 162.348 5.369 154.409 5.369 153.748 6.031 153.748 20.584 155.071 35.8 155.732 36.462 161.024 36.462 161.686 35.8 163.009 20.584 163.009 6.031"></polyline>
                <path d="M128.084,21.881 C127.465,18.551 126.61,15.296 125.537,12.138 C124.739,9.788 124.116,8.155 123.085,5.921 L122.001,5.26 L114.485,5.26 L113.824,5.921 C114.856,8.155 115.486,9.788 116.284,12.138 C118.699,19.249 120.011,26.85 120.011,34.7 L120.011,50.907 L120.671,51.568 L128.61,51.568 L129.272,50.907 L129.272,34.368 C129.272,28.635 131.697,25.767 136.55,25.767 C140.077,25.767 141.842,27.752 141.842,31.721 L141.842,50.907 L142.503,51.568 L150.442,51.568 L151.104,50.907 L151.104,31.06 C151.104,27.048 149.989,23.839 147.763,21.434 C145.535,19.031 142.459,17.829 138.533,17.829 C135.005,17.829 131.134,19.679 128.929,21.884 L128.084,21.881" id="Fill-3"></path>
                <path d="M100.136,17.829 C95.151,17.829 91.149,19.384 88.129,22.493 C85.107,25.602 83.597,29.781 83.597,35.029 C83.597,40.279 85.107,44.456 88.129,47.566 C91.149,50.675 95.151,52.23 100.136,52.23 C105.119,52.23 109.121,50.675 112.143,47.566 C115.163,44.456 116.675,40.279 116.675,35.029 C116.675,29.781 115.163,25.602 112.143,22.493 C109.121,19.384 105.119,17.829 100.136,17.829 M100.136,44.291 C97.797,44.291 96.001,43.487 94.744,41.876 C93.487,40.266 92.859,37.984 92.859,35.029 C92.859,32.076 93.487,29.793 94.744,28.182 C96.001,26.573 97.797,25.767 100.136,25.767 C102.473,25.767 104.271,26.573 105.527,28.182 C106.785,29.793 107.413,32.076 107.413,35.029 C107.413,37.984 106.785,40.266 105.527,41.876 C104.271,43.487 102.473,44.291 100.136,44.291" id="Fill-4"></path>
                <polyline id="Fill-5" points="80.488 6.252 79.827 5.59 71.888 5.59 71.227 6.252 71.227 51.237 71.888 51.899 79.827 51.899 80.488 51.237 80.488 6.252"></polyline>
                <polyline id="Fill-6" points="68.124 6.252 67.462 5.59 59.523 5.59 58.862 6.252 58.862 51.237 59.523 51.899 67.462 51.899 68.124 51.237 68.124 6.252"></polyline>
                <path d="M51.612,22.758 C48.856,19.473 44.941,17.829 39.87,17.829 C34.798,17.829 30.883,19.473 28.127,22.758 C25.371,26.043 23.993,30.134 23.993,35.029 C23.993,39.969 25.415,44.071 28.26,47.334 C31.105,50.598 35.195,52.23 40.531,52.23 C42.869,52.23 44.941,51.909 46.75,51.27 C48.558,50.632 49.969,49.782 50.984,48.723 C51.999,47.665 52.78,46.606 53.333,45.548 C53.884,44.49 54.248,43.409 54.424,42.306 L53.763,41.645 L45.824,41.645 L45.162,42.306 C44.501,43.629 42.956,44.291 40.531,44.291 C38.238,44.291 36.562,43.674 35.504,42.439 C34.445,41.204 33.916,40.057 33.916,38.998 L34.578,38.337 L55.085,38.337 L55.747,37.676 L55.747,35.029 C55.747,30.134 54.368,26.043 51.612,22.758 M34.578,31.721 L33.916,31.06 C33.916,30.795 33.982,30.421 34.114,29.935 C34.247,29.45 34.5,28.867 34.875,28.182 C35.249,27.499 35.868,26.925 36.728,26.462 C37.587,25.999 38.635,25.767 39.87,25.767 C41.104,25.767 42.152,25.999 43.012,26.462 C43.872,26.925 44.49,27.499 44.865,28.182 C45.239,28.867 45.493,29.45 45.625,29.935 C45.758,30.421 45.824,30.795 45.824,31.06 L45.162,31.721 L34.578,31.721" id="Fill-7"></path>
                <path d="M23.61,20.018 L23.993,19.164 L21.637,12.982 L20.783,12.599 L14.602,14.955 L13.748,14.573 L12.806,12.1 C12.334,10.864 12.717,10.01 13.953,9.539 L19.517,7.419 L19.9,6.565 L17.544,0.383 L16.69,0 L11.126,2.12 C8.076,3.283 5.85,4.993 4.444,7.251 C3.04,9.51 2.941,12.224 4.151,15.398 L5.093,17.87 L4.71,18.724 L0.383,20.373 L3.55271368e-15,21.227 L2.356,27.409 L3.21,27.792 L7.537,26.143 L8.791,26.704 C8.972,27.207 9.155,27.731 9.348,28.298 C11.763,35.41 13.075,43.011 13.075,50.86 L13.075,51.237 L13.735,51.899 L21.674,51.899 L22.335,51.237 L22.335,50.86 C22.335,43.011 21.024,35.41 18.608,28.298 C18.009,26.534 17.504,25.173 16.853,23.658 L17.428,22.373 L23.61,20.018" id="Fill-8"></path>
            </g>
        </g>
    </g>
</svg>